<svg width="24" height="24" viewBox="0 0 24 24" fill="none" xmlns="http://www.w3.org/2000/svg">
<g clip-path="url(#clip0_4418_9580)">
<path d="M21.81 3.93988C20.27 7.77988 16.41 12.9999 13.18 15.5899L11.21 17.1699C10.96 17.3499 10.71 17.5099 10.43 17.6199C10.43 17.4399 10.42 17.2399 10.39 17.0499C10.28 16.2099 9.90002 15.4299 9.23002 14.7599C8.55002 14.0799 7.72002 13.6799 6.87002 13.5699C6.67002 13.5599 6.47002 13.5399 6.27002 13.5599C6.38002 13.2499 6.55002 12.9599 6.76002 12.7199L8.32002 10.7499C10.9 7.51988 16.14 3.63988 19.97 2.10988C20.56 1.88988 21.13 2.04988 21.49 2.41988C21.87 2.78988 22.05 3.35988 21.81 3.93988Z" stroke="#fff" stroke-width="1.5" stroke-linecap="round" stroke-linejoin="round"/>
<path d="M10.43 17.6208C10.43 18.7208 10.01 19.7708 9.22003 20.5708C8.61003 21.1808 7.78003 21.6008 6.79003 21.7308L4.33003 22.0008C2.99003 22.1508 1.84003 21.0108 2.00003 19.6508L2.27003 17.1908C2.51003 15.0008 4.34003 13.6008 6.28003 13.5608C6.48003 13.5508 6.69003 13.5608 6.88003 13.5708C7.73003 13.6808 8.56003 14.0708 9.24003 14.7608C9.91003 15.4308 10.29 16.2108 10.4 17.0508C10.41 17.2408 10.43 17.4308 10.43 17.6208Z" stroke="#fff" stroke-width="1.5" stroke-linecap="round" stroke-linejoin="round"/>
<path d="M14.24 14.4702C14.24 11.8602 12.12 9.74023 9.51001 9.74023" stroke="#fff" stroke-width="1.5" stroke-linecap="round" stroke-linejoin="round"/>
</g>
<defs>
<clipPath id="clip0_4418_9580">
<rect width="24" height="24" fill="none"/>
</clipPath>
</defs>
</svg>