<svg width="24" height="24" viewBox="0 0 24 24" fill="none" xmlns="http://www.w3.org/2000/svg">
<g clip-path="url(#clip0_4418_9532)">
<path d="M15.58 11.9999C15.58 13.9799 13.98 15.5799 12 15.5799C10.02 15.5799 8.42004 13.9799 8.42004 11.9999C8.42004 10.0199 10.02 8.41992 12 8.41992C13.98 8.41992 15.58 10.0199 15.58 11.9999Z" stroke="#fff" stroke-width="1.5" stroke-linecap="round" stroke-linejoin="round"/>
<path d="M12 20.2707C15.53 20.2707 18.82 18.1907 21.11 14.5907C22.01 13.1807 22.01 10.8107 21.11 9.4007C18.82 5.8007 15.53 3.7207 12 3.7207C8.46997 3.7207 5.17997 5.8007 2.88997 9.4007C1.98997 10.8107 1.98997 13.1807 2.88997 14.5907C5.17997 18.1907 8.46997 20.2707 12 20.2707Z" stroke="#fff" stroke-width="1.5" stroke-linecap="round" stroke-linejoin="round"/>
</g>
<defs>
<clipPath id="clip0_4418_9532">
<rect width="24" height="24" fill="none"/>
</clipPath>
</defs>
</svg>