<svg width="24" height="24" viewBox="0 0 24 24" fill="#fff" xmlns="http://www.w3.org/2000/svg">
<g clip-path="url(#clip0_655_9398)">
<path d="M12.0003 8.02C8.51027 8.02 5.78027 6.11 5.78027 3.66C5.78027 2.33 6.87027 1.25 8.20027 1.25C9.78027 1.25 11.1803 2.17 12.0103 3.57C12.8303 2.17 14.2303 1.25 15.8103 1.25C17.1403 1.25 18.2303 2.33 18.2303 3.66C18.2303 6.1 15.5003 8.02 12.0103 8.02H12.0003ZM8.20027 2.81C7.72027 2.81 7.34027 3.19 7.34027 3.66C7.34027 5.02 9.05027 6.18 11.2203 6.41C11.2003 4.42 9.85027 2.8 8.20027 2.8V2.81ZM15.8103 2.81C14.1603 2.81 12.8203 4.42 12.7903 6.41C14.9603 6.18 16.6603 5.01 16.6603 3.66C16.6603 3.19 16.2803 2.81 15.8103 2.81Z"/>
<path d="M18.2301 7H5.77012C3.48012 7 1.62012 8.87 1.62012 11.15V18.12C1.62012 19.27 2.20012 20.29 3.11012 21C3.83012 21.61 4.76012 22 5.78012 22H18.2401C20.5301 22 22.3901 20.13 22.3901 17.85V11.16C22.3901 8.88 20.5301 7.01 18.2401 7.01L18.2301 7ZM20.8401 17.85C20.8401 19.29 19.6701 20.46 18.2301 20.46H12.6201V8.54H18.2301C19.6701 8.54 20.8401 9.71 20.8401 11.15V17.84V17.85Z"/>
</g>
<defs>
<clipPath id="clip0_655_9398">
<rect width="24" height="24" fill="white"/>
</clipPath>
</defs>
</svg>