<svg width="24" height="24" viewBox="0 0 24 24" fill="#fff" xmlns="http://www.w3.org/2000/svg">
<g clip-path="url(#clip0_4418_8665)">
<path d="M20.6799 13.9104V13.9004C19.7999 12.9704 18.5699 12.4004 17.1999 12.4004C14.5499 12.4004 12.3999 14.5504 12.3999 17.2004C12.3999 18.4304 12.8699 19.5504 13.6299 20.4004C14.5099 21.3804 15.7799 22.0004 17.1999 22.0004C19.8499 22.0004 21.9999 19.8504 21.9999 17.2004C21.9999 15.9304 21.4999 14.7704 20.6799 13.9104ZM18.9899 18.0104H17.9499V19.1004C17.9499 19.5104 17.6099 19.8504 17.1999 19.8504C16.7899 19.8504 16.4499 19.5104 16.4499 19.1004V18.0104H15.4099C14.9899 18.0104 14.6599 17.6804 14.6599 17.2604C14.6599 16.8504 14.9799 16.5204 15.3999 16.5104H16.4499V15.5104C16.4499 15.4904 16.4499 15.4704 16.4599 15.4504C16.4799 15.0704 16.8099 14.7604 17.1999 14.7604C17.5999 14.7604 17.9299 15.0804 17.9499 15.4804V16.5104H18.9899C19.4099 16.5104 19.7399 16.8504 19.7399 17.2604C19.7399 17.6804 19.4099 18.0104 18.9899 18.0104Z"/>
<path d="M22 8.73062C22 9.92062 21.81 11.0206 21.48 12.0406C21.42 12.2506 21.17 12.3106 20.99 12.1806C19.9 11.3706 18.57 10.9406 17.2 10.9406C13.73 10.9406 10.9 13.7706 10.9 17.2406C10.9 18.3206 11.18 19.3806 11.71 20.3206C11.87 20.6006 11.68 20.9606 11.38 20.8506C8.97 20.0306 4.1 17.0406 2.52 12.0406C2.19 11.0206 2 9.92062 2 8.73062C2 5.64062 4.49 3.14063 7.56 3.14063C9.37 3.14063 10.99 4.02062 12 5.37062C13.01 4.02062 14.63 3.14063 16.44 3.14063C19.51 3.14062 22 5.64062 22 8.73062Z"/>
</g>
<defs>
<clipPath id="clip0_4418_8665">
<rect width="24" height="24" fill="white"/>
</clipPath>
</defs>
</svg>