<svg width="24" height="24" viewBox="0 0 24 24" fill="#fff" xmlns="http://www.w3.org/2000/svg">
<g clip-path="url(#clip0_4418_4950)">
<path opacity="0.4" d="M7.1099 5.9593L16.1299 2.9493C20.1799 1.5993 22.3799 3.8093 21.0399 7.8593L18.0299 16.8793C16.0099 22.9493 12.6899 22.9493 10.6699 16.8793L9.7799 14.1993L7.0999 13.3093C1.0399 11.2993 1.0399 7.9893 7.1099 5.9593Z"/>
<path d="M12.1201 11.6305L15.9301 7.81055L12.1201 11.6305Z"/>
<path d="M12.1201 12.38C11.9301 12.38 11.7401 12.31 11.5901 12.16C11.3001 11.87 11.3001 11.39 11.5901 11.1L15.3901 7.28C15.6801 6.99 16.1601 6.99 16.4501 7.28C16.7401 7.57 16.7401 8.05 16.4501 8.34L12.6501 12.16C12.5001 12.3 12.3101 12.38 12.1201 12.38Z"/>
</g>
<defs>
<clipPath id="clip0_4418_4950">
<rect width="24" height="24" fill="white"/>
</clipPath>
</defs>
</svg>